<?xml version="1.0" encoding="utf-8"?>
<!-- Generator: Adobe Illustrator 19.0.0, SVG Export Plug-In . SVG Version: 6.00 Build 0)  -->
<svg version="1.1" id="Layer_1" xmlns="http://www.w3.org/2000/svg" xmlns:xlink="http://www.w3.org/1999/xlink" x="0px" y="0px"
	 viewBox="0 0 30.3 30" style="enable-background:new 0 0 30.3 30;" xml:space="preserve">
<style type="text/css">
	.st0{fill-rule:evenodd;clip-rule:evenodd;fill:#9B9C9C;}
</style>
<path class="st0" d="M15.2,0C6.8,0,0,6.7,0,15c0,8.3,6.8,15,15.2,15c8.4,0,15.2-6.7,15.2-15C30.3,6.7,23.5,0,15.2,0z M15.8,12.6h2.7
	l-0.5,2.3h-2v6.2h-2.8v-6.2h-1.3l0-2.3h1.3v-0.3c0-0.9,0.1-1.4,0.3-1.8c0.2-0.4,0.5-0.9,1.1-1.2c0.6-0.3,1.1-0.4,2-0.4
	c0.9,0,1.5,0.3,2.4,0.5l-0.6,2c-0.5-0.3-0.9-0.5-1.3-0.5c-0.5,0-0.8,0.1-1,0.3C15.6,11.6,15.8,12.6,15.8,12.6z"/>
</svg>
