<?xml version="1.0" encoding="utf-8"?>
<!-- Generator: Adobe Illustrator 19.0.0, SVG Export Plug-In . SVG Version: 6.00 Build 0)  -->
<svg version="1.1" id="Layer_1" xmlns="http://www.w3.org/2000/svg" xmlns:xlink="http://www.w3.org/1999/xlink" x="0px" y="0px"
	 viewBox="0 0 30.3 30" style="enable-background:new 0 0 30.3 30;" xml:space="preserve">
<style type="text/css">
	.st0{fill-rule:evenodd;clip-rule:evenodd;fill:#9B9C9C;}
</style>
<path class="st0" d="M15.2,0C6.8,0,0,6.7,0,15c0,8.3,6.8,15,15.2,15c8.4,0,15.2-6.7,15.2-15C30.3,6.7,23.5,0,15.2,0z M21.7,14
	c0,0-1.2,0.7-1.4,0.7c0,0-0.2,0-0.2,0.2c0,0-0.2,4.8-6.6,4.8c0,0-3.2,0-5.3-2.3c0,0-0.4-0.4-0.1-0.3c0,0,1.9,0.6,2.6,0.6
	c0,0,1,0.4,1.7-0.7c0,0,0.2-0.3-0.1-0.5c0,0-2.9-0.3-2.7-0.8c0,0,0-0.3,0.4-0.2c0,0,0.6-1,0.3-1.2c0,0-0.4-0.3-0.1-0.3
	c0,0,0.8,0.1,1.1,0.2c0,0,0.2-0.1,0-0.2c-0.2-0.1-0.4-0.4-0.4-0.4c0,0,0.1-0.2,0.5,0c0,0,0.2-0.3,0.1-0.4c0,0-0.4-0.2-0.2-0.4
	c0,0,0.9-1,1.8,0.6c0,0,0.2,0.3,0.3,0c0,0,1.2-3.1,2.7-3.4c0,0,0.5,0.1,0.6-0.1c0,0,0.4-0.2,0.6,0c0,0,0.1,0.2,0.3,0.1
	c0,0,0.6-0.2,0.4,0.1c0,0-0.6,0.6-0.8,0.6c-0.2,0-0.2,0.3,0,0.3c0,0,2.5,0.2,2.5,1.9c0,0,0.1,0.4,0.6,0c0,0,0.7-0.4,0.9-0.4
	c0,0,0.2-0.1,0.2,0.2c0,0-0.5,0.8-1.1,1.1c0,0-0.3,0.4,0.1,0.3c0,0,0.4-0.1,0.7-0.2C21.4,13.8,22,13.6,21.7,14z"/>
</svg>
