<?xml version="1.0" encoding="utf-8"?>
<!-- Generator: Adobe Illustrator 19.0.0, SVG Export Plug-In . SVG Version: 6.00 Build 0)  -->
<svg version="1.1" id="Layer_1" xmlns="http://www.w3.org/2000/svg" xmlns:xlink="http://www.w3.org/1999/xlink" x="0px" y="0px"
	 viewBox="0 0 30.3 30" style="enable-background:new 0 0 30.3 30;" xml:space="preserve">
<style type="text/css">
	.st0{fill-rule:evenodd;clip-rule:evenodd;fill:#9B9C9C;}
</style>
<g>
	<path class="st0" d="M15.2,0C6.8,0,0,6.7,0,15c0,8.3,6.8,15,15.2,15s15.2-6.7,15.2-15C30.3,6.7,23.5,0,15.2,0z M15.6,20.6
		c0,0-2.1,0-3.3,0c-0.4,0-0.9-0.4-0.9-0.9c0-2.2,0-7.1,0-9.3c0-0.9,0.7-1,0.9-1c1.3,0,4.5,0.1,4.8,0.1c0,0,2.4,0.3,2.4,2.7
		c0,1.1-0.4,2-1.5,2.4v0.1c1.1,0.3,1.9,1.3,1.9,2.7C20.1,20.9,14.8,20.6,15.6,20.6z"/>
	<path class="st0" d="M15.6,15.9c-0.6,0-1.4,0-1.4,0v2.8c0,0,0.5,0,1.4,0c1.2,0,1.4-1.1,1.4-1.4C17.1,15.9,15.5,15.9,15.6,15.9z"/>
	<path class="st0" d="M16.6,12.7c0-0.4,0.1-1.4-1.4-1.4c-0.7,0-0.9,0-0.9,0v2.8c0,0,0.6-0.1,1.1-0.1C15.3,14,16.6,14,16.6,12.7z"/>
</g>
</svg>
